<svg width="44" height="56" viewBox="0 0 44 56" fill="none" xmlns="http://www.w3.org/2000/svg">
<g clip-path="url(#clip0)">
<path d="M25.8318 0.865571C29.0952 0.939243 29.9568 8.61956 29.9568 8.61956H0.256836C0.256836 8.61956 0.495169 2.61528 2.3285 1.68517C4.16184 0.755063 20.3043 0.745854 25.8318 0.865571Z" fill="#F7B519"/>
<path d="M0.751888 9.82598H33.9902C34.1847 9.82598 34.3712 9.74836 34.5088 9.6102C34.6463 9.47204 34.7236 9.28465 34.7236 9.08926C34.7236 8.89387 34.6463 8.70648 34.5088 8.56832C34.3712 8.43016 34.1847 8.35254 33.9902 8.35254H0.751888C0.557396 8.35254 0.37087 8.43016 0.233343 8.56832C0.0958164 8.70648 0.0185547 8.89387 0.0185547 9.08926C0.0185547 9.28465 0.0958164 9.47204 0.233343 9.6102C0.37087 9.74836 0.557396 9.82598 0.751888 9.82598V9.82598Z" fill="#404852"/>
<path d="M40.0951 39.9026H29.2968C28.5779 39.9026 27.9951 40.4881 27.9951 41.2103V49.2589C27.9951 49.9811 28.5779 50.5666 29.2968 50.5666H40.0951C40.814 50.5666 41.3968 49.9811 41.3968 49.2589V41.2103C41.3968 40.4881 40.814 39.9026 40.0951 39.9026Z" fill="#F7B519"/>
<path d="M41.5617 51.7638H27.9584C27.7991 51.7731 27.6397 51.7471 27.4916 51.6877C27.3434 51.6284 27.2099 51.5371 27.1007 51.4203C26.9914 51.3035 26.909 51.1641 26.8592 51.0118C26.8094 50.8595 26.7935 50.6982 26.8125 50.539C26.8125 48.4854 26.8125 46.4318 26.8125 44.3782V40.9801C26.7325 40.4177 26.7636 39.8451 26.9042 39.2948C27.2159 38.5949 27.9584 38.6962 28.5725 38.6962H41.1217C41.8275 38.6962 42.515 38.8528 42.57 39.7277C42.68 41.505 42.57 43.3284 42.57 45.1057C42.57 46.8831 42.6617 48.8538 42.57 50.7048C42.5749 50.9792 42.4717 51.2445 42.2829 51.4429C42.094 51.6412 41.8348 51.7566 41.5617 51.7638C40.645 51.7638 40.645 53.2465 41.5617 53.2004C41.8964 53.1886 42.2255 53.1102 42.5298 52.9696C42.8341 52.8291 43.1076 52.6292 43.3344 52.3816C43.5612 52.134 43.7369 51.8437 43.8511 51.5274C43.9654 51.2111 44.016 50.8751 44 50.539V40.4091C44.0639 39.9328 44.0141 39.4481 43.8548 38.9949C43.6954 38.5418 43.431 38.1332 43.0834 37.803C42.4152 37.3368 41.5985 37.1367 40.7917 37.2412H33.715C31.79 37.2412 29.8559 37.2412 27.9217 37.2412C27.2595 37.2314 26.6205 37.4856 26.1445 37.9482C25.6686 38.4108 25.3946 39.0441 25.3825 39.7092C25.3825 40.3815 25.3825 41.0538 25.3825 41.726V49.3603C25.3149 50.0779 25.3582 50.8017 25.5109 51.506C25.703 52.0416 26.0661 52.4983 26.5437 52.8048C27.0212 53.1113 27.5863 53.2504 28.1509 53.2004H41.5617C41.7513 53.2004 41.9332 53.1248 42.0673 52.9901C42.2014 52.8554 42.2767 52.6727 42.2767 52.4821C42.2767 52.2916 42.2014 52.1089 42.0673 51.9742C41.9332 51.8395 41.7513 51.7638 41.5617 51.7638Z" fill="#404852"/>
<path d="M1.53979 53.6057C3.43729 55.5027 4.88562 55.5027 10.514 55.2541C16.1423 55.0054 28.4165 55.0146 28.4165 55.0146C26.0547 54.6526 23.9096 53.4258 22.394 51.5705C20.7898 49.3879 20.304 46.966 20.5606 47.1778H0.256455C0.256455 47.1778 0.128122 52.1967 1.53979 53.6057Z" fill="#F7B519"/>
<path d="M28.2425 54.5171H7.85583C6.0225 54.5171 4.18917 54.7105 2.7225 53.2739C1.53083 52.0767 1.485 50.6494 1.485 49.0838V6.55661C1.485 6.28034 1.485 6.00407 1.485 5.73701C1.48861 4.94017 1.71251 4.16001 2.13173 3.48355C2.55095 2.8071 3.149 2.26096 3.85917 1.90606C5.20667 1.22459 7.0675 1.48244 8.53417 1.48244H16.5825C20.735 1.48244 24.8875 1.41798 29.0492 1.48244C29.9963 1.49387 30.9128 1.82121 31.6545 2.413C32.3962 3.00479 32.9211 3.82745 33.1467 4.75164C33.2505 5.31003 33.2874 5.87889 33.2567 6.4461V29.4686C33.2567 29.664 33.3339 29.8514 33.4715 29.9896C33.609 30.1277 33.7955 30.2053 33.99 30.2053C34.1845 30.2053 34.371 30.1277 34.5085 29.9896C34.6461 29.8514 34.7233 29.664 34.7233 29.4686V8.4905C34.7233 6.81446 34.9158 4.97266 34.2375 3.40713C33.812 2.44949 33.135 1.62634 32.2791 1.02605C31.4231 0.42575 30.4206 0.07097 29.3792 -0.000208425C28.93 -0.000208425 28.4625 -0.000208425 28.0133 -0.000208425H6.08667C5.06032 -0.0301757 4.0418 0.187733 3.11667 0.635213C2.18679 1.11609 1.40515 1.84274 0.855948 2.73688C0.306746 3.63102 0.0108016 4.65876 0 5.70938C0 6.51056 0 7.30254 0 8.10372V40.6576C0 43.8531 0 47.0394 0 50.2349C0.0121133 51.7705 0.629669 53.2385 1.71733 54.3174C2.80499 55.3963 4.27403 55.9979 5.8025 55.9906C7.54417 55.9906 9.28583 55.9906 11.0275 55.9906H28.2425C28.437 55.9906 28.6235 55.913 28.761 55.7748C28.8986 55.6366 28.9758 55.4493 28.9758 55.2539C28.9758 55.0585 28.8986 54.8711 28.761 54.7329C28.6235 54.5948 28.437 54.5171 28.2425 54.5171V54.5171Z" fill="#404852"/>
<path d="M0.751888 47.6475H21.2577C21.4522 47.6475 21.6387 47.5699 21.7763 47.4317C21.9138 47.2936 21.9911 47.1062 21.9911 46.9108C21.9911 46.7154 21.9138 46.528 21.7763 46.3899C21.6387 46.2517 21.4522 46.1741 21.2577 46.1741H0.751888C0.557396 46.1741 0.37087 46.2517 0.233343 46.3899C0.0958164 46.528 0.0185547 46.7154 0.0185547 46.9108C0.0185547 47.1062 0.0958164 47.2936 0.233343 47.4317C0.37087 47.5699 0.557396 47.6475 0.751888 47.6475V47.6475Z" fill="#404852"/>
<path d="M13.4565 27.9954H30.0848C30.2793 27.9954 30.4658 27.9178 30.6034 27.7796C30.7409 27.6415 30.8181 27.4541 30.8181 27.2587C30.8181 27.0633 30.7409 26.8759 30.6034 26.7378C30.4658 26.5996 30.2793 26.522 30.0848 26.522H13.4565C13.262 26.522 13.0755 26.5996 12.9379 26.7378C12.8004 26.8759 12.7231 27.0633 12.7231 27.2587C12.7231 27.4541 12.8004 27.6415 12.9379 27.7796C13.0755 27.9178 13.262 27.9954 13.4565 27.9954V27.9954Z" fill="#404852"/>
<path d="M13.4565 38.8067H20.7898C20.9843 38.8067 21.1708 38.7291 21.3084 38.5909C21.4459 38.4527 21.5231 38.2654 21.5231 38.07C21.5231 37.8746 21.4459 37.6872 21.3084 37.549C21.1708 37.4109 20.9843 37.3333 20.7898 37.3333H13.4565C13.262 37.3333 13.0755 37.4109 12.9379 37.549C12.8004 37.6872 12.7231 37.8746 12.7231 38.07C12.7231 38.2654 12.8004 38.4527 12.9379 38.5909C13.0755 38.7291 13.262 38.8067 13.4565 38.8067V38.8067Z" fill="#404852"/>
<path d="M13.4565 17.6905H30.0848C30.2793 17.6905 30.4658 17.6129 30.6034 17.4747C30.7409 17.3365 30.8181 17.1492 30.8181 16.9538C30.8181 16.7584 30.7409 16.571 30.6034 16.4328C30.4658 16.2947 30.2793 16.217 30.0848 16.217H13.4565C13.262 16.217 13.0755 16.2947 12.9379 16.4328C12.8004 16.571 12.7231 16.7584 12.7231 16.9538C12.7231 17.1492 12.8004 17.3365 12.9379 17.4747C13.0755 17.6129 13.262 17.6905 13.4565 17.6905V17.6905Z" fill="#404852"/>
<path d="M3.89587 17.7181L5.85754 20.1677C5.93671 20.2464 6.03266 20.3059 6.13812 20.3417C6.24357 20.3775 6.35577 20.3888 6.46619 20.3746C6.57662 20.3604 6.68238 20.3211 6.77545 20.2597C6.86852 20.1984 6.94646 20.1165 7.00337 20.0204L10.4225 15.3054L10.9175 14.6239C10.9663 14.5405 10.9982 14.4482 11.0115 14.3524C11.0247 14.2565 11.0191 14.159 10.9948 14.0654C10.9705 13.9717 10.9282 13.8838 10.8701 13.8066C10.812 13.7294 10.7393 13.6645 10.6563 13.6155C10.5732 13.5666 10.4814 13.5345 10.386 13.5212C10.2906 13.5079 10.1935 13.5135 10.1003 13.5379C10.0071 13.5623 9.91958 13.6049 9.84275 13.6632C9.76593 13.7216 9.70129 13.7945 9.65254 13.878L6.23337 18.593L5.73837 19.2745L6.89337 19.1271L4.9317 16.6775C4.86426 16.6082 4.7837 16.5531 4.69475 16.5155C4.60581 16.4779 4.51029 16.4585 4.41379 16.4585C4.31729 16.4585 4.22176 16.4779 4.13282 16.5155C4.04388 16.5531 3.96332 16.6082 3.89587 16.6775C3.76304 16.8179 3.68896 17.0042 3.68896 17.1978C3.68896 17.3915 3.76304 17.5778 3.89587 17.7181V17.7181Z" fill="#404852"/>
<path d="M3.89587 28.0324L5.85754 30.482C5.93671 30.5606 6.03266 30.6201 6.13812 30.6559C6.24357 30.6917 6.35577 30.703 6.46619 30.6888C6.57662 30.6746 6.68238 30.6353 6.77545 30.5739C6.86852 30.5126 6.94646 30.4307 7.00337 30.3346L10.4225 25.6196L10.9175 24.9381C11.016 24.7696 11.0438 24.5687 10.9948 24.3796C10.9458 24.1905 10.824 24.0287 10.6563 23.9297C10.4885 23.8308 10.2885 23.8029 10.1003 23.8521C9.91207 23.9013 9.751 24.0237 9.65254 24.1922L6.23337 28.9072L5.73837 29.5887L6.89337 29.469L4.9317 26.9917C4.86426 26.9224 4.7837 26.8673 4.69475 26.8297C4.60581 26.7921 4.51029 26.7727 4.41379 26.7727C4.31729 26.7727 4.22176 26.7921 4.13282 26.8297C4.04388 26.8673 3.96332 26.9224 3.89587 26.9917C3.76304 27.1321 3.68896 27.3184 3.68896 27.512C3.68896 27.7057 3.76304 27.892 3.89587 28.0324V28.0324Z" fill="#404852"/>
<path d="M3.95069 38.8345L5.90319 41.2934C6.22403 41.6985 6.81986 41.4775 7.05819 41.1368L10.4774 36.4218L10.9632 35.7403C11.0611 35.5714 11.089 35.3706 11.041 35.1811C10.993 34.9917 10.8729 34.8287 10.7065 34.7273C10.5362 34.6345 10.337 34.6104 10.1497 34.66C9.96227 34.7096 9.8008 34.8292 9.69819 34.9944L6.27903 39.7186L5.79319 40.4001L6.93903 40.2435L4.98653 37.7571C4.84905 37.6193 4.66279 37.5419 4.46861 37.5419C4.27442 37.5419 4.08817 37.6193 3.95069 37.7571C3.81574 37.8964 3.74023 38.083 3.74023 38.2774C3.74023 38.4718 3.81574 38.6584 3.95069 38.7977V38.8345Z" fill="#404852"/>
<path d="M37.5835 44.4242C37.5864 43.9671 37.481 43.5158 37.2761 43.1077C37.0712 42.6996 36.7726 42.3463 36.405 42.0769C36.0373 41.8076 35.6112 41.63 35.1618 41.5587C34.7123 41.4874 34.2525 41.5245 33.8201 41.667C33.3878 41.8095 32.9954 42.0532 32.6753 42.3781C32.3552 42.7029 32.1166 43.0996 31.9792 43.5354C31.8418 43.9711 31.8095 44.4335 31.885 44.8842C31.9605 45.335 32.1417 45.7613 32.4135 46.1278L32.3127 45.7595V47.4724C32.2959 47.7464 32.3113 48.0215 32.3585 48.292C32.446 48.6225 32.6383 48.9154 32.9062 49.1264C33.1741 49.3374 33.5031 49.455 33.8435 49.4615C34.3935 49.4615 34.9527 49.4615 35.5118 49.4615C35.7682 49.4686 36.0224 49.4127 36.2524 49.2988C36.4824 49.1849 36.6813 49.0163 36.8318 48.8077C37.0236 48.4861 37.1131 48.1134 37.0885 47.7394V45.7595L36.9877 46.1278C37.3616 45.6381 37.5704 45.0413 37.5835 44.4242C37.5835 44.2288 37.5062 44.0414 37.3687 43.9032C37.2312 43.7651 37.0447 43.6875 36.8502 43.6875C36.6557 43.6875 36.4691 43.7651 36.3316 43.9032C36.1941 44.0414 36.1168 44.2288 36.1168 44.4242C36.1108 44.6034 36.0767 44.7805 36.016 44.9491C35.9335 45.1425 35.7868 45.2898 35.7043 45.474C35.6463 45.6488 35.6245 45.8337 35.6402 46.0173V47.4724C35.6402 47.6197 35.6402 47.767 35.6402 47.9052C35.6402 47.9052 35.6402 48.0157 35.6402 47.9052C35.6304 47.9108 35.6193 47.9138 35.6081 47.9138C35.5968 47.9138 35.5857 47.9108 35.576 47.9052C35.1727 47.9052 34.7693 47.9052 34.366 47.9052H33.8618C33.8618 47.9052 33.761 47.9052 33.816 47.9052C33.8093 47.8958 33.8057 47.8845 33.8057 47.873C33.8057 47.8614 33.8093 47.8501 33.816 47.8407C33.816 47.4632 33.816 47.0764 33.816 46.6988C33.8435 46.3248 33.8435 45.9493 33.816 45.5753C33.7343 45.3423 33.6202 45.1222 33.4768 44.9215C33.4118 44.7719 33.3685 44.6137 33.3485 44.4518C33.3299 44.1584 33.4002 43.8662 33.5502 43.6138C33.7108 43.3526 33.9515 43.1508 34.236 43.0388C34.5206 42.9267 34.8337 42.9105 35.1282 42.9925C35.4227 43.0745 35.6828 43.2504 35.8693 43.4936C36.0559 43.7368 36.1588 44.0343 36.1627 44.3413C36.1929 44.5029 36.2761 44.6497 36.399 44.7582C36.5219 44.8668 36.6774 44.931 36.8408 44.9405C37.0042 44.9501 37.1661 44.9044 37.3007 44.8108C37.4353 44.7173 37.5348 44.5812 37.5835 44.4242V44.4242Z" fill="#404852"/>
<path d="M30.4149 37.2595V35.915C30.3596 35.4699 30.3781 35.0187 30.4699 34.5797C30.7999 33.7417 31.9366 33.9535 32.6424 33.9535H37.6749C37.9936 33.909 38.3177 33.9774 38.5916 34.1469C39.0774 34.5153 38.9674 35.1875 38.9674 35.7216V37.2964C38.9674 37.4869 39.0428 37.6696 39.1768 37.8043C39.3109 37.939 39.4928 38.0147 39.6824 38.0147C39.8721 38.0147 40.0539 37.939 40.188 37.8043C40.3221 37.6696 40.3974 37.4869 40.3974 37.2964V35.6848C40.4651 35.0264 40.3674 34.3616 40.1133 33.7509C39.9027 33.3674 39.5933 33.0479 39.2175 32.826C38.8417 32.604 38.4134 32.4877 37.9774 32.4893C37.6291 32.4893 37.2808 32.4893 36.9324 32.4893H32.8899C31.7808 32.4893 30.5524 32.3235 29.6908 33.1892C28.6824 34.2022 28.9849 35.9519 28.9849 37.2595C28.9849 37.45 29.0603 37.6328 29.1943 37.7675C29.3284 37.9022 29.5103 37.9778 29.6999 37.9778C29.8896 37.9778 30.0714 37.9022 30.2055 37.7675C30.3396 37.6328 30.4149 37.45 30.4149 37.2595V37.2595Z" fill="#404852"/>
<path d="M32.7069 37.6557C32.7069 37.4254 32.7069 37.1952 32.7069 36.9558C32.7053 36.7518 32.7395 36.5492 32.8077 36.3572V36.2651C32.8077 36.348 32.8719 36.1546 32.8627 36.1638L32.9361 36.0533C32.8719 36.1362 32.9361 36.0533 32.9361 36.0533C32.9361 36.0533 32.8169 36.173 32.9361 36.0533C33.0552 35.9336 32.7802 36.1177 32.9361 36.0533C33.0919 35.9888 32.8077 36.0533 32.8536 36.0533H36.3461C36.4194 36.0533 36.4652 36.0533 36.3461 36.0533C36.4194 36.0533 36.4011 36.0533 36.3461 36.0533C36.4469 36.127 36.3461 35.9336 36.3461 36.0533C36.3461 36.173 36.4469 36.1638 36.3461 36.0533L36.4469 36.219C36.4469 36.219 36.5111 36.348 36.4469 36.219C36.4754 36.2913 36.4999 36.3651 36.5202 36.4401C36.5512 36.5422 36.5727 36.647 36.5844 36.7532C36.5844 37.0386 36.5844 37.3425 36.5844 37.6741C36.5844 37.8695 36.6617 38.0568 36.7992 38.195C36.9367 38.3332 37.1232 38.4108 37.3177 38.4108C37.5122 38.4108 37.6987 38.3332 37.8363 38.195C37.9738 38.0568 38.0511 37.8695 38.0511 37.6741C38.1724 36.7582 37.9358 35.8307 37.3911 35.0863C37.1708 34.8884 36.9086 34.7433 36.6244 34.6619C36.3402 34.5806 36.0413 34.5651 35.7502 34.6167H33.7611C33.2375 34.5427 32.7038 34.6061 32.2119 34.8009C31.2952 35.3902 31.2402 36.6427 31.2402 37.6557C31.2402 37.851 31.3175 38.0384 31.455 38.1766C31.5925 38.3148 31.7791 38.3924 31.9736 38.3924C32.1681 38.3924 32.3546 38.3148 32.4921 38.1766C32.6296 38.0384 32.7069 37.851 32.7069 37.6557V37.6557Z" fill="#404852"/>
</g>
<defs>
<clipPath id="clip0">
<rect width="44" height="56" fill="white"/>
</clipPath>
</defs>
</svg>
