<svg width="44" height="56" viewBox="0 0 44 56" fill="none" xmlns="http://www.w3.org/2000/svg">
<g clip-path="url(#clip0)">
<path d="M25.53 0.863867C28.7566 0.943314 29.6073 8.61985 29.6073 8.61985H0.244629C0.244629 8.61985 0.469518 2.66135 2.28818 1.66826C4.10685 0.675181 20.0642 0.744697 25.53 0.863867Z" fill="#F7B519"/>
<path d="M0.723556 9.82157H33.6062C33.7981 9.82157 33.9822 9.74415 34.1178 9.60633C34.2535 9.46851 34.3298 9.28159 34.3298 9.08669C34.3298 8.89179 34.2535 8.70487 34.1178 8.56705C33.9822 8.42923 33.7981 8.35181 33.6062 8.35181H0.723556C0.531657 8.35181 0.347617 8.42923 0.211925 8.56705C0.0762315 8.70487 0 8.89179 0 9.08669C0 9.28159 0.0762315 9.46851 0.211925 9.60633C0.347617 9.74415 0.531657 9.82157 0.723556 9.82157V9.82157Z" fill="#404852"/>
<path d="M1.50608 53.6267C3.38341 55.5234 4.81097 55.5234 10.3843 55.2752C15.9576 55.0269 28.043 55.0368 28.043 55.0368C25.7355 54.6437 23.649 53.4076 22.1763 51.561C20.5923 49.3862 20.1034 46.9333 20.3479 47.1716H0.244744C0.244744 47.1716 0.117633 52.1966 1.50608 53.6267Z" fill="#F7B519"/>
<path d="M25.0214 54.5104H6.09165C5.19873 54.5609 4.30928 54.3617 3.52009 53.9344C2.89166 53.5533 2.37068 53.014 2.00754 52.3685C1.64441 51.7231 1.4514 50.9934 1.4472 50.25C1.4472 47.39 1.4472 44.5299 1.4472 41.6599V6.04788C1.42908 5.47634 1.50509 4.90574 1.67209 4.35964C1.95344 3.52947 2.47989 2.80755 3.17975 2.29221C3.87961 1.77687 4.71886 1.49315 5.58321 1.4797C9.61165 1.42011 13.6401 1.4797 17.6685 1.4797H28.0036C28.6105 1.44451 29.2192 1.49464 29.8125 1.62866C30.6894 1.88147 31.4622 2.41558 32.0155 3.15121C32.5689 3.88684 32.8731 4.78453 32.8828 5.71023V29.4847C32.8828 29.6796 32.959 29.8665 33.0947 30.0043C33.2304 30.1421 33.4144 30.2195 33.6063 30.2195C33.7982 30.2195 33.9823 30.1421 34.1179 30.0043C34.2536 29.8665 34.3299 29.6796 34.3299 29.4847V8.93776C34.438 7.46469 34.402 5.98437 34.2223 4.51853C34.0029 3.5157 33.5252 2.59006 32.838 1.83627C32.1508 1.08249 31.2788 0.527616 30.3112 0.22841C29.5957 0.0461745 28.8581 -0.0307471 28.121 7.01677e-07H6.60987C6.21876 7.01677e-07 5.82765 7.01677e-07 5.43654 7.01677e-07C4.41511 0.0322339 3.42132 0.344668 2.56059 0.90416C1.69986 1.46365 1.00428 2.24934 0.547649 3.17787C0.0432037 4.43558 -0.157941 5.79753 -0.0390173 7.1502V50.2798C-0.0258485 51.2503 0.227299 52.2018 0.697152 53.0469C1.16701 53.8919 1.83849 54.6035 2.64987 55.1162C4.34143 56.2085 6.36543 55.9801 8.27209 55.9801H25.0214C25.2133 55.9801 25.3974 55.9027 25.5331 55.7649C25.6687 55.6271 25.745 55.4402 25.745 55.2453C25.745 55.0504 25.6687 54.8634 25.5331 54.7256C25.3974 54.5878 25.2133 54.5104 25.0214 54.5104V54.5104Z" fill="#404852"/>
<path d="M27.3779 54.5105H25.0214C24.8295 54.5105 24.6455 54.5879 24.5098 54.7257C24.3741 54.8636 24.2979 55.0505 24.2979 55.2454C24.2979 55.4403 24.3741 55.6272 24.5098 55.765C24.6455 55.9028 24.8295 55.9803 25.0214 55.9803H27.3779C27.5697 55.9803 27.7538 55.9028 27.8895 55.765C28.0252 55.6272 28.1014 55.4403 28.1014 55.2454C28.1014 55.0505 28.0252 54.8636 27.8895 54.7257C27.7538 54.5879 27.5697 54.5105 27.3779 54.5105V54.5105Z" fill="#404852"/>
<path d="M28.7077 54.5105H27.3779C27.2831 54.5108 27.1894 54.5303 27.1021 54.5678C27.0148 54.6053 26.9357 54.6601 26.8695 54.729C26.7334 54.8655 26.6561 55.0511 26.6544 55.2454C26.653 55.3423 26.6709 55.4384 26.7068 55.5282C26.7427 55.6179 26.7959 55.6995 26.8634 55.768C26.9308 55.8365 27.0111 55.8906 27.0995 55.927C27.1879 55.9635 27.2825 55.9816 27.3779 55.9803H28.6881C28.8802 55.9777 29.0647 55.9035 29.2064 55.7717C29.3405 55.6299 29.4173 55.442 29.4215 55.2454C29.4167 55.0518 29.3399 54.8672 29.2064 54.729C29.069 54.5893 28.8826 54.5107 28.6881 54.5105H28.7077Z" fill="#404852"/>
<path d="M0.723504 47.6679H21.0124C21.191 47.6469 21.3559 47.5599 21.4755 47.4235C21.5951 47.2871 21.6612 47.1108 21.6612 46.9281C21.6612 46.7454 21.5951 46.5691 21.4755 46.4327C21.3559 46.2963 21.191 46.2093 21.0124 46.1882H0.723504C0.544849 46.2093 0.380043 46.2963 0.260422 46.4327C0.140801 46.5691 0.074707 46.7454 0.074707 46.9281C0.074707 47.1108 0.140801 47.2871 0.260422 47.4235C0.380043 47.5599 0.544849 47.6469 0.723504 47.6679Z" fill="#404852"/>
<path d="M38.1334 50.3294C37.8988 50.4684 37.6543 50.5976 37.4001 50.7167C37.3216 50.7636 37.2547 50.8282 37.2045 50.9054C37.1403 50.9799 37.0935 51.0681 37.0677 51.1636C37.0432 51.258 37.0432 51.3572 37.0677 51.4516C37.0683 51.5513 37.099 51.6483 37.1557 51.7297L37.2632 51.8786C37.3566 51.9637 37.4665 52.028 37.5859 52.0673H37.7814C37.9088 52.0696 38.0343 52.0352 38.1432 51.968C38.3974 51.8488 38.6419 51.7197 38.8765 51.5807C38.96 51.5371 39.0308 51.472 39.0819 51.392C39.1451 51.3183 39.1889 51.2295 39.209 51.1338C39.2382 51.0401 39.2382 50.9395 39.209 50.8458C39.2071 50.7478 39.1801 50.652 39.1308 50.5678L39.0134 50.4188C38.9229 50.3298 38.812 50.265 38.6908 50.2301H38.505C38.3745 50.2276 38.2458 50.262 38.1334 50.3294V50.3294Z" fill="#404852"/>
<path d="M41.8588 45.9996V46.079C41.8588 45.9797 41.8588 45.9599 41.8588 46.079C41.8588 46.1982 41.8588 46.1883 41.7904 46.2379L41.6437 46.5656C41.5362 46.7742 41.4188 46.9827 41.3015 47.1913C41.1842 47.3998 41.057 47.5984 40.9202 47.7871L40.7148 48.0851L40.6562 48.1546L40.5486 48.2936C40.4167 48.4329 40.3401 48.6168 40.3335 48.81C40.3355 48.9552 40.3792 49.0967 40.4593 49.2169C40.5394 49.3372 40.6524 49.4311 40.7843 49.487C40.9163 49.543 41.0614 49.5585 41.202 49.5317C41.3425 49.505 41.4723 49.437 41.5753 49.3363C42.2686 48.4757 42.8321 47.5151 43.2473 46.4862C43.2984 46.2966 43.2736 46.0941 43.1784 45.923C43.0831 45.7518 42.9251 45.6259 42.7388 45.5726C42.6454 45.5479 42.548 45.5422 42.4524 45.5558C42.3567 45.5694 42.2647 45.6021 42.1815 45.652C42.0219 45.754 41.9012 45.9081 41.8393 46.089L41.8588 45.9996Z" fill="#404852"/>
<path d="M44 43.2488C44.1552 41.0399 43.6219 38.8374 42.4756 36.9536C41.3294 35.0698 39.6284 33.6002 37.6137 32.7532C35.5991 31.9063 33.3731 31.7249 31.2513 32.2348C29.1295 32.7447 27.2196 33.9201 25.7923 35.5942C24.365 37.2683 23.4928 39.3563 23.2993 41.5621C23.1058 43.7679 23.6008 45.9795 24.7143 47.8836C25.8277 49.7876 27.503 51.2873 29.5026 52.1702C31.5022 53.053 33.7248 53.2742 35.8551 52.8023C36.7644 52.6136 36.3733 51.1935 35.464 51.3822C33.6214 51.7762 31.7034 51.5704 29.9826 50.794C28.2618 50.0176 26.8257 48.7102 25.8783 47.0574C24.931 45.4046 24.5206 43.4907 24.7055 41.5875C24.8903 39.6843 25.6611 37.8887 26.9082 36.4558C28.1554 35.023 29.8154 34.0258 31.6524 33.606C33.4894 33.1861 35.41 33.365 37.1412 34.1172C38.8724 34.8693 40.3262 36.1565 41.296 37.7959C42.2657 39.4352 42.7021 41.3432 42.5431 43.2488C42.4844 44.2419 43.9315 44.2419 44 43.2488V43.2488Z" fill="#404852"/>
<path d="M28.2188 43.4077L31.6019 47.3304C31.7354 47.4546 31.9098 47.5236 32.0908 47.5236C32.2718 47.5236 32.4463 47.4546 32.5797 47.3304L38.505 40.4484L39.3459 39.4553C39.9619 38.7502 38.9353 37.6975 38.3682 38.4622L32.4428 45.3443L31.6019 46.3373H32.5797L29.1966 42.365C28.5806 41.65 27.5539 42.6927 28.1699 43.4077H28.2188Z" fill="#404852"/>
<path d="M22.7235 37.1313C17.8346 37.1313 12.9457 37.1313 8.05685 37.1313C7.80427 37.1507 7.55049 37.1163 7.31176 37.0304C7.07303 36.9444 6.85461 36.8087 6.67051 36.632C6.48641 36.4553 6.34068 36.2415 6.24266 36.0042C6.14464 35.767 6.09649 35.5116 6.1013 35.2544V23.1288C6.1013 20.954 6.04263 18.7692 6.1013 16.5844C6.11022 16.3255 6.17209 16.0713 6.28297 15.8381C6.39385 15.6048 6.55133 15.3975 6.74538 15.2293C6.93942 15.0612 7.16579 14.9359 7.4101 14.8615C7.6544 14.787 7.91128 14.765 8.16441 14.7969H27.72C27.9742 14.7648 28.2322 14.7874 28.4773 14.8631C28.7224 14.9388 28.9491 15.066 29.1427 15.2364C29.3363 15.4068 29.4925 15.6167 29.6011 15.8523C29.7097 16.0879 29.7684 16.3441 29.7733 16.6043C29.7733 17.5974 29.7733 18.5904 29.7733 19.5835V29.3257C29.794 29.5071 29.8797 29.6745 30.014 29.796C30.1483 29.9175 30.3219 29.9846 30.5017 29.9846C30.6816 29.9846 30.8552 29.9175 30.9895 29.796C31.1238 29.6745 31.2095 29.5071 31.2302 29.3257V17.2399C31.2302 16.9519 31.2302 16.6639 31.2302 16.3858C31.1934 15.766 30.9835 15.1696 30.6251 14.6666C30.2666 14.1636 29.7744 13.7747 29.2062 13.5456C28.4283 13.3206 27.6162 13.2431 26.8106 13.3172H8.89774C8.02068 13.2244 7.13458 13.3506 6.31641 13.6846C5.73857 14.0204 5.26866 14.5187 4.96333 15.1196C4.65799 15.7204 4.53026 16.3981 4.59552 17.071V34.5592C4.52532 35.1261 4.57633 35.7016 4.74507 36.2466C4.91381 36.7916 5.19631 37.2932 5.5733 37.7172C6.02261 38.082 6.54067 38.3494 7.0956 38.5032C7.65052 38.6569 8.23055 38.6936 8.79996 38.611H22.7235C22.9022 38.59 23.067 38.503 23.1866 38.3666C23.3062 38.2301 23.3723 38.0538 23.3723 37.8712C23.3723 37.6885 23.3062 37.5122 23.1866 37.3758C23.067 37.2394 22.9022 37.1524 22.7235 37.1313V37.1313Z" fill="#404852"/>
<path d="M5.31926 20.6858H26.1166C26.3085 20.6858 26.4925 20.6084 26.6282 20.4706C26.7639 20.3328 26.8401 20.1458 26.8401 19.9509C26.8401 19.756 26.7639 19.5691 26.6282 19.4313C26.4925 19.2935 26.3085 19.2161 26.1166 19.2161H5.31926C5.12736 19.2161 4.94332 19.2935 4.80763 19.4313C4.67193 19.5691 4.5957 19.756 4.5957 19.9509C4.5957 20.1458 4.67193 20.3328 4.80763 20.4706C4.94332 20.6084 5.12736 20.6858 5.31926 20.6858Z" fill="#404852"/>
<path d="M17.952 27.151L16.4364 28.7101C16.4245 28.7247 16.4095 28.7364 16.3926 28.7445C16.3757 28.7525 16.3573 28.7567 16.3386 28.7567C16.32 28.7567 16.3015 28.7525 16.2846 28.7445C16.2677 28.7364 16.2528 28.7247 16.2408 28.7101L14.8133 27.1907C14.8006 27.1786 14.7904 27.164 14.7835 27.1478C14.7765 27.1315 14.7729 27.114 14.7729 27.0963C14.7729 27.0786 14.7765 27.0611 14.7835 27.0449C14.7904 27.0287 14.8006 27.0141 14.8133 27.002L18.5093 23.2879C18.5379 23.2787 18.5686 23.2787 18.5973 23.2879H20.8657C20.8833 23.2878 20.9007 23.2915 20.9167 23.2986C20.9328 23.3057 20.9473 23.3161 20.9593 23.3291C20.9712 23.3422 20.9803 23.3576 20.9861 23.3744C20.9919 23.3913 20.9942 23.4091 20.9928 23.4269V34.2515C20.9942 34.2693 20.9919 34.2871 20.9861 34.304C20.9803 34.3208 20.9712 34.3362 20.9593 34.3493C20.9473 34.3623 20.9328 34.3728 20.9167 34.3799C20.9007 34.387 20.8833 34.3906 20.8657 34.3905H18.3137C18.2774 34.3905 18.2426 34.3759 18.2169 34.3498C18.1913 34.3237 18.1768 34.2884 18.1768 34.2515V27.2999C18.1886 27.2701 18.1898 27.237 18.1803 27.2063C18.1708 27.1757 18.1511 27.1493 18.1246 27.1318C18.098 27.1142 18.0663 27.1065 18.0349 27.11C18.0034 27.1135 17.9741 27.128 17.952 27.151Z" fill="#F6B519"/>
<path d="M17.4435 26.6346L16.6808 27.4092L16.1821 27.9156C16.1235 27.9851 16.0452 28.0447 15.9963 28.1142C15.9475 28.1838 15.7715 28.2036 16.143 28.0447L16.7003 28.1142C16.7981 28.1142 16.7003 28.2036 16.7003 28.1142C16.6599 28.06 16.614 28.01 16.5635 27.9653L16.0648 27.429L15.5857 26.9225C15.5354 26.8583 15.4798 26.7985 15.4195 26.7438C15.3021 26.6346 15.3706 26.565 15.4977 26.8928L15.4292 27.4687C15.4292 27.5581 15.3608 27.5184 15.4292 27.4191L15.6541 27.2006L16.3972 26.4558L18.2746 24.5789C18.4701 24.3703 18.7048 24.1717 18.8906 23.9532L19.0275 23.8241C19.0959 23.9334 18.3626 23.9036 18.7635 23.9929C19.1799 24.0277 19.5985 24.0277 20.015 23.9929H20.5821C20.644 23.9979 20.7061 23.9979 20.7679 23.9929C20.8852 23.9929 20.8755 24.0426 20.7679 23.9929L20.2595 23.4765C20.2595 23.417 20.2595 23.3375 20.2595 23.4765C20.2546 23.5526 20.2546 23.6289 20.2595 23.705V33.8741C20.2546 33.9668 20.2546 34.0596 20.2595 34.1522C20.2595 34.2714 20.2595 34.2515 20.2595 34.1522L20.7679 33.6358C20.8461 33.6358 20.8755 33.6358 20.7679 33.6358C20.6603 33.6358 20.5723 33.6358 20.4746 33.6358H18.4408C18.3137 33.6358 18.3235 33.5861 18.4408 33.6358L18.9492 34.1522C18.9492 34.2416 18.9492 34.2714 18.9492 34.1522C18.9541 34.0695 18.9541 33.9866 18.9492 33.9039V27.8064C18.9492 27.6276 18.9492 27.4489 18.9492 27.2801C18.9524 27.1402 18.922 27.0016 18.8608 26.8763C18.7996 26.751 18.7093 26.6426 18.5977 26.5606C18.4861 26.4785 18.3566 26.4252 18.2203 26.4052C18.084 26.3852 17.9449 26.3992 17.815 26.4459C17.6323 26.5014 17.4775 26.6262 17.3829 26.7945C17.2882 26.9627 17.2609 27.1614 17.3066 27.3496C17.3591 27.5366 17.4816 27.6953 17.6479 27.7918C17.8142 27.8883 18.011 27.9149 18.1963 27.866H17.991L17.4923 27.3496C17.4923 27.2602 17.4923 27.2205 17.4923 27.3496C17.4874 27.4256 17.4874 27.5019 17.4923 27.578V30.7856C17.4337 31.9335 17.4337 33.0837 17.4923 34.2316C17.5999 35.2247 18.5777 35.1056 19.311 35.1056H20.5137C20.8077 35.1446 21.1066 35.0963 21.3741 34.9665C21.8141 34.6785 21.7652 34.1919 21.7652 33.7351V32.0965C21.7652 29.2464 21.8435 26.3962 21.7652 23.5461C21.7652 23.2827 21.6622 23.0301 21.4789 22.8438C21.2955 22.6576 21.0468 22.553 20.7875 22.553C20.103 22.553 19.3892 22.553 18.7048 22.553C18.1963 22.553 17.8932 22.9899 17.551 23.3276L15.8399 25.0456C15.3706 25.5223 14.8621 25.9692 14.4221 26.4657C13.7083 27.2602 14.5199 27.9057 15.0479 28.4519C15.5759 28.9981 16.2408 29.9713 17.0523 29.2066C17.5706 28.73 18.0301 28.2136 18.5386 27.6971C19.1252 27.002 18.0986 25.9593 17.4435 26.6346Z" fill="#404852"/>
</g>
<defs>
<clipPath id="clip0">
<rect width="44" height="56" fill="white"/>
</clipPath>
</defs>
</svg>
