<svg width="72" height="56" viewBox="0 0 72 56" fill="none" xmlns="http://www.w3.org/2000/svg">
<path d="M63.0749 14.8992H9.10494C8.18539 14.8992 7.43994 15.6729 7.43994 16.6273V45.4446C7.43994 46.399 8.18539 47.1727 9.10494 47.1727H63.0749C63.9945 47.1727 64.7399 46.399 64.7399 45.4446V16.6273C64.7399 15.6729 63.9945 14.8992 63.0749 14.8992Z" fill="#F7B519"/>
<path d="M62.8801 11.614H8.91012C7.99056 11.614 7.24512 12.3877 7.24512 13.3421V42.1595C7.24512 43.1139 7.99056 43.8876 8.91012 43.8876H62.8801C63.7997 43.8876 64.5451 43.1139 64.5451 42.1595V13.3421C64.5451 12.3877 63.7997 11.614 62.8801 11.614Z" fill="white"/>
<path d="M62.8799 42.9381H10.3799C9.29991 42.9381 8.29491 43.156 8.20491 41.7393C8.03991 39.0459 8.20491 36.2748 8.20491 33.5814V21.3912C8.03925 18.7993 8.03925 16.1989 8.20491 13.607C8.38491 12.2214 9.58491 12.5483 10.6499 12.5483H59.8649C60.8249 12.5483 63.1799 12.019 63.6299 13.3267C63.713 13.9204 63.713 14.5234 63.6299 15.1171V40.9297C63.6299 41.8327 63.8699 42.798 62.6399 42.9692C61.4099 43.1405 61.9799 44.962 63.1349 44.8063C65.9999 44.4015 65.4599 41.0543 65.4599 38.8903V15.771C65.4599 13.5914 65.6849 10.9292 62.8649 10.6645C58.3649 10.2597 53.6999 10.6645 49.2299 10.6645H24.4199C19.3499 10.6645 14.2049 10.4154 9.11991 10.6645C6.73491 10.7891 6.32991 12.6417 6.32991 14.6656V37.3645C6.32991 39.1394 5.75991 42.3465 6.94491 43.8566C8.12991 45.3668 9.94491 44.8374 11.3099 44.8374H62.8799C63.1226 44.8374 63.3553 44.7374 63.5269 44.5593C63.6985 44.3812 63.7949 44.1396 63.7949 43.8878C63.7949 43.6359 63.6985 43.3943 63.5269 43.2162C63.3553 43.0381 63.1226 42.9381 62.8799 42.9381V42.9381Z" fill="#404852"/>
<path d="M35.5202 37.0531C40.2753 37.0531 44.1302 33.0522 44.1302 28.1168C44.1302 23.1814 40.2753 19.1804 35.5202 19.1804C30.765 19.1804 26.9102 23.1814 26.9102 28.1168C26.9102 33.0522 30.765 37.0531 35.5202 37.0531Z" fill="#F7B519"/>
<path d="M34.1102 35.5119C32.9695 35.267 31.898 34.754 30.9782 34.0123C30.0583 33.2705 29.3146 32.3198 28.8041 31.2331C28.2936 30.1464 28.0299 28.9526 28.0333 27.7436C28.0368 26.5347 28.3072 25.3426 28.8239 24.259C29.3405 23.1754 30.0897 22.2292 31.0137 21.4931C31.9377 20.757 33.0121 20.2506 34.1542 20.0127C35.2962 19.7748 36.4757 19.8119 37.6018 20.1211C38.7279 20.4302 39.7707 21.0032 40.6502 21.796C41.5352 22.59 42.8402 21.2511 41.9552 20.4571C40.262 18.8912 38.0827 18.0094 35.8151 17.9729C33.5475 17.9363 31.3429 18.7473 29.6036 20.2579C27.8644 21.7685 26.7066 23.8779 26.3415 26.201C25.9765 28.5241 26.4285 30.9061 27.6152 32.9119C28.9885 35.1179 31.1444 36.673 33.6152 37.24C34.7552 37.4891 35.2502 35.6831 34.0952 35.4029L34.1102 35.5119Z" fill="#404852"/>
<path d="M39.3449 34.6399C39.0449 34.8112 38.7449 34.9668 38.4299 35.107L38.6399 35.0136C37.9475 35.31 37.2217 35.514 36.4799 35.6207C36.2476 35.6896 36.0511 35.8511 35.9331 36.0698C35.815 36.2885 35.7851 36.5468 35.8499 36.7884C35.9175 37.0231 36.0674 37.223 36.2699 37.3488C36.4869 37.4654 36.7366 37.4985 36.9749 37.4422C38.132 37.2757 39.2473 36.8793 40.2599 36.2746C40.4679 36.1478 40.6192 35.941 40.681 35.699C40.7428 35.457 40.7101 35.1995 40.5899 34.9824C40.4651 34.7696 40.2658 34.6151 40.0338 34.5513C39.8017 34.4874 39.5549 34.5192 39.3449 34.6399V34.6399Z" fill="#404852"/>
<path d="M43.215 27.7431C43.215 27.9767 43.215 28.2102 43.215 28.4282C43.2231 28.5422 43.2231 28.6566 43.215 28.7707C43.215 29.0042 43.215 28.6461 43.215 28.8485C43.1553 29.2752 43.0651 29.6967 42.945 30.1096C42.945 30.2964 42.825 30.4988 42.75 30.6856C42.7475 30.7374 42.7475 30.7894 42.75 30.8413L42.645 31.0904C42.4654 31.4653 42.2651 31.8292 42.045 32.1802C41.9248 32.3972 41.8921 32.6547 41.9539 32.8967C42.0157 33.1387 42.167 33.3456 42.375 33.4724C42.585 33.5931 42.8319 33.6248 43.0639 33.561C43.296 33.4972 43.4952 33.3427 43.62 33.1298C44.612 31.5229 45.1331 29.6516 45.12 27.7431C45.12 27.4913 45.0236 27.2497 44.852 27.0716C44.6805 26.8935 44.4477 26.7935 44.205 26.7935C43.9624 26.7935 43.7296 26.8935 43.558 27.0716C43.3864 27.2497 43.29 27.4913 43.29 27.7431H43.215Z" fill="#404852"/>
<path d="M32.265 39.7776H17.91L18.825 40.7272C18.7793 38.7272 17.9934 36.8222 16.6304 35.4076C15.2674 33.9929 13.432 33.1773 11.505 33.1298L12.42 34.0795V22.0606L11.505 23.0103C13.432 22.9628 15.2674 22.1471 16.6304 20.7325C17.9934 19.3178 18.7793 17.4129 18.825 15.4128L17.91 16.3625H24.87C25.1127 16.3625 25.3454 16.2624 25.517 16.0843C25.6886 15.9062 25.785 15.6647 25.785 15.4128C25.785 15.1609 25.6886 14.9194 25.517 14.7413C25.3454 14.5632 25.1127 14.4631 24.87 14.4631H17.91C17.6697 14.4709 17.4413 14.5735 17.2713 14.7499C17.1013 14.9264 17.0025 15.1634 16.995 15.4128C16.9756 16.9178 16.3909 18.3554 15.3655 19.4197C14.3401 20.4839 12.955 21.0907 11.505 21.1109C11.2661 21.1189 11.0394 21.222 10.8718 21.3988C10.7043 21.5756 10.6087 21.8126 10.605 22.0606V34.0795C10.6049 34.3287 10.6993 34.5679 10.8677 34.7456C11.036 34.9232 11.2649 35.0251 11.505 35.0292C12.9562 35.0454 14.3435 35.6509 15.3697 36.716C16.396 37.7811 16.9794 39.221 16.995 40.7272C16.9988 40.9779 17.0965 41.2171 17.2673 41.3943C17.438 41.5716 17.6685 41.6729 17.91 41.6769H32.265C32.5077 41.6769 32.7404 41.5769 32.912 41.3988C33.0836 41.2207 33.18 40.9791 33.18 40.7272C33.18 40.4754 33.0836 40.2338 32.912 40.0557C32.7404 39.8776 32.5077 39.7776 32.265 39.7776V39.7776Z" fill="#404852"/>
<path d="M42.3898 39.7776H37.2148C36.9721 39.7776 36.7394 39.8776 36.5678 40.0557C36.3962 40.2338 36.2998 40.4754 36.2998 40.7273C36.3037 40.9779 36.4013 41.2171 36.5721 41.3944C36.7428 41.5716 36.9733 41.6729 37.2148 41.677H42.3898C42.6325 41.677 42.8652 41.5769 43.0368 41.3988C43.2084 41.2207 43.3048 40.9791 43.3048 40.7273C43.3009 40.4767 43.2033 40.2374 43.0325 40.0602C42.8618 39.8829 42.6313 39.7816 42.3898 39.7776V39.7776Z" fill="#404852"/>
<path d="M40.5 16.3625H54L53.085 15.4128C53.1307 17.4129 53.9166 19.3178 55.2795 20.7325C56.6425 22.1471 58.478 22.9628 60.405 23.0103L59.49 22.0606V34.0795L60.405 33.1298C58.478 33.1773 56.6425 33.9929 55.2795 35.4076C53.9166 36.8222 53.1307 38.7272 53.085 40.7272L54 39.7776H46.785C46.5423 39.7776 46.3096 39.8776 46.138 40.0557C45.9664 40.2338 45.87 40.4754 45.87 40.7272C45.87 40.9791 45.9664 41.2207 46.138 41.3988C46.3096 41.5769 46.5423 41.6769 46.785 41.6769H54C54.2414 41.6729 54.4719 41.5716 54.6427 41.3943C54.8135 41.2171 54.9111 40.9779 54.915 40.7272C54.9344 39.2223 55.519 37.7846 56.5444 36.7204C57.5698 35.6561 58.955 35.0493 60.405 35.0292C60.6464 35.0251 60.8769 34.9238 61.0477 34.7466C61.2185 34.5693 61.3161 34.3301 61.32 34.0795V22.0606C61.3161 21.81 61.2185 21.5707 61.0477 21.3935C60.8769 21.2162 60.6464 21.1149 60.405 21.1109C58.9562 21.0868 57.5732 20.4788 56.5486 19.4153C55.524 18.3519 54.9381 16.9165 54.915 15.4128C54.9111 15.1622 54.8135 14.923 54.6427 14.7457C54.4719 14.5685 54.2414 14.4671 54 14.4631H40.5C40.2573 14.4631 40.0246 14.5632 39.853 14.7413C39.6814 14.9194 39.585 15.1609 39.585 15.4128C39.585 15.6647 39.6814 15.9062 39.853 16.0843C40.0246 16.2624 40.2573 16.3625 40.5 16.3625V16.3625Z" fill="#404852"/>
<path d="M29.1001 16.3625H35.4451C35.6877 16.3625 35.9205 16.2624 36.0921 16.0843C36.2637 15.9062 36.3601 15.6647 36.3601 15.4128C36.3601 15.1609 36.2637 14.9194 36.0921 14.7413C35.9205 14.5632 35.6877 14.4631 35.4451 14.4631H29.1001C28.8598 14.4709 28.6314 14.5735 28.4614 14.7499C28.2914 14.9264 28.1926 15.1634 28.1851 15.4128C28.1889 15.6634 28.2866 15.9027 28.4573 16.0799C28.6281 16.2571 28.8586 16.3585 29.1001 16.3625V16.3625Z" fill="#404852"/>
<path d="M5.115 2.98916C4.305 2.14846 4.635 0 3.765 0C2.895 0 3.24 2.14846 2.43 2.98916C1.215 4.25021 0 4.34362 0 4.85738C0 5.37114 1.035 5.27773 2.22 6.50764C2.835 7.14595 3.165 9.77704 3.72 9.77704C4.275 9.77704 4.665 7.14595 5.22 6.50764C6.51 5.27773 7.5 5.35557 7.5 4.85738C7.5 4.35919 6.33 4.25021 5.115 2.98916Z" fill="#F7B519"/>
<path d="M69.5701 49.2121C68.7601 48.3714 69.0901 46.2229 68.2351 46.2229C67.3801 46.2229 67.6951 48.3714 66.8851 49.2121C65.6701 50.4731 64.4551 50.5821 64.4551 51.0803C64.4551 51.5785 65.4901 51.5006 66.6751 52.7305C67.2901 53.3844 67.6351 55.9999 68.1751 55.9999C68.7151 55.9999 69.1051 53.3844 69.6751 52.7305C70.8601 51.5006 71.8951 51.594 71.8951 51.0803C71.8951 50.5665 70.7851 50.4731 69.5701 49.2121Z" fill="#F7B519"/>
</svg>
