<svg width="79" height="56" viewBox="0 0 79 56" fill="none" xmlns="http://www.w3.org/2000/svg">
<g clip-path="url(#clip0)">
<path d="M40.8709 44.2603H10.2733C8.98203 44.3343 7.68757 44.3343 6.39628 44.2603C5.31161 44.1173 4.31204 43.5966 3.57321 42.7897C2.83437 41.9828 2.40354 40.9413 2.3564 39.8482C2.3564 39.4838 2.3564 39.0728 2.3564 38.7472V7.30435C2.36416 4.59817 4.17861 2.37275 6.97784 2.32623C8.04015 2.32623 9.11021 2.32623 10.1725 2.32623H46.3298C50.013 2.32623 53.7039 2.32623 57.3794 2.32623C58.0259 2.31777 58.6672 2.44237 59.2635 2.6923C59.8598 2.94223 60.3983 3.31213 60.8455 3.77902C61.2928 4.24591 61.6392 4.7998 61.8633 5.40627C62.0874 6.01274 62.1844 6.65882 62.1481 7.30435V18.2841C62.1481 18.5926 62.2707 18.8885 62.4888 19.1066C62.7069 19.3247 63.0028 19.4472 63.3113 19.4472C63.6197 19.4472 63.9156 19.3247 64.1337 19.1066C64.3518 18.8885 64.4744 18.5926 64.4744 18.2841V10.6153C64.4744 7.56799 64.8155 4.41207 62.4428 2.03157C60.7989 0.372196 58.7131 0 56.5032 0H7.75324C5.20215 0 2.87593 0.775409 1.3096 2.93104C-0.000840336 4.77652 0.0379301 6.85461 0.0379301 8.98698V36.2503C-0.0370972 37.7133 -0.0111889 39.1797 0.115471 40.6392C0.619486 44.3068 3.81417 46.5865 7.37329 46.5865H40.8709C41.1794 46.5865 41.4753 46.464 41.6934 46.2459C41.9115 46.0277 42.034 45.7319 42.034 45.4234C42.034 45.115 41.9115 44.8191 41.6934 44.601C41.4753 44.3829 41.1794 44.2603 40.8709 44.2603V44.2603Z" fill="#404852"/>
<path d="M62.4593 54.457C71.0243 54.457 77.9675 47.5138 77.9675 38.9488C77.9675 30.3839 71.0243 23.4407 62.4593 23.4407C53.8944 23.4407 46.9512 30.3839 46.9512 38.9488C46.9512 47.5138 53.8944 54.457 62.4593 54.457Z" fill="#F7B519"/>
<path d="M75.3775 44.9116C75.3775 44.9581 75.3775 44.9969 75.3232 45.0434C75.393 44.8728 75.4085 44.8418 75.3232 44.9581L75.2069 45.214L74.9665 45.7258C74.7959 46.0592 74.6176 46.3849 74.4237 46.7106C74.2299 47.0362 74.0283 47.3542 73.8112 47.6643L73.4777 48.1218C73.4002 48.22 73.4157 48.1968 73.5243 48.052L73.439 48.1683L73.2606 48.3932C73.0485 48.6151 72.9269 48.9082 72.9194 49.2151C72.9222 49.523 73.0445 49.8177 73.2606 50.0371C73.4807 50.2512 73.7755 50.371 74.0825 50.371C74.3896 50.371 74.6844 50.2512 74.9045 50.0371C76.017 48.678 76.9188 47.1593 77.5796 45.5319C77.6224 45.382 77.6341 45.2249 77.6141 45.0702C77.5941 44.9156 77.5428 44.7666 77.4633 44.6325C77.3057 44.3794 77.0575 44.196 76.7694 44.1196C76.4812 44.0433 76.1747 44.0797 75.9125 44.2215C75.663 44.3863 75.4749 44.6289 75.3775 44.9116V44.9116Z" fill="#404852"/>
<path d="M78.7659 40.5617C79.0159 37.0713 78.1607 33.5908 76.3217 30.6137C74.4826 27.6367 71.753 25.3141 68.5198 23.9754C65.2867 22.6367 61.7142 22.3498 58.3089 23.1553C54.9035 23.9609 51.8382 25.8181 49.5476 28.4635C47.257 31.1089 45.8573 34.4084 45.5471 37.8939C45.2368 41.3794 46.0317 44.8742 47.8191 47.8826C49.6065 50.891 52.2955 53.2604 55.505 54.6548C58.7145 56.0491 62.2816 56.3977 65.7003 55.6511C67.1658 55.3487 66.5455 53.1078 65.0877 53.4024C62.1353 54.0225 59.0625 53.6965 56.3058 52.4707C53.5492 51.2449 51.2489 49.1816 49.7318 46.574C48.2146 43.9663 47.5577 40.9469 47.8544 37.9446C48.1511 34.9424 49.3862 32.1099 51.3845 29.8497C53.3827 27.5894 56.0423 26.0162 58.9855 25.3537C61.9287 24.6911 65.0059 24.9728 67.7799 26.1588C70.5539 27.3448 72.8837 29.3748 74.4382 31.9603C75.9928 34.5458 76.6931 37.5555 76.4397 40.5617C76.3389 42.0582 78.6651 42.0505 78.7659 40.5617Z" fill="#404852"/>
<path d="M53.503 40.8098L58.9309 47.013C59.0384 47.1218 59.1664 47.2082 59.3074 47.2671C59.4485 47.3261 59.5999 47.3564 59.7528 47.3564C59.9057 47.3564 60.0571 47.3261 60.1982 47.2671C60.3393 47.2082 60.4673 47.1218 60.5748 47.013L70.0813 36.1573L71.4305 34.6065C72.4153 33.4899 70.7714 31.8383 69.7866 32.9626L60.2801 43.8184L58.9309 45.3692H60.5748L55.1469 39.1659C54.1621 38.0416 52.5183 39.6932 53.503 40.8098Z" fill="#404852"/>
<path d="M43.2757 23.2468H9.40583C8.69494 23.2468 8.11865 23.8231 8.11865 24.534V30.9466C8.11865 31.6575 8.69494 32.2338 9.40583 32.2338H43.2757C43.9866 32.2338 44.5629 31.6575 44.5629 30.9466V24.534C44.5629 23.8231 43.9866 23.2468 43.2757 23.2468Z" fill="#F7B519"/>
<path d="M62.5443 8.59155H8.18818C7.37879 8.59155 6.72266 9.24769 6.72266 10.0571V14.5467C6.72266 15.3561 7.37879 16.0122 8.18818 16.0122H62.5443C63.3537 16.0122 64.0098 15.3561 64.0098 14.5467V10.0571C64.0098 9.24769 63.3537 8.59155 62.5443 8.59155Z" fill="#F7B519"/>
<path d="M18.8194 30.931H10.4605C9.99526 30.931 9.05701 31.1171 8.81664 30.5821C8.69633 29.8686 8.69633 29.14 8.81664 28.4265V25.0845C8.81664 24.5494 8.70808 23.9524 9.39044 23.8438C9.64866 23.8276 9.90763 23.8276 10.1658 23.8438H40.9185C41.4613 23.8438 43.4154 23.5259 43.4774 24.3788C43.5859 25.8676 45.9199 25.8754 45.8036 24.3788C45.7838 23.6222 45.4728 22.9025 44.9354 22.3695C44.3981 21.8364 43.6758 21.5313 42.9191 21.5176C42.6244 21.5176 42.3375 21.5176 42.0429 21.5176H10.1503C9.87895 21.5176 9.60755 21.5176 9.33616 21.5176C8.57947 21.5333 7.85804 21.8404 7.32214 22.3749C6.78625 22.9093 6.47721 23.6299 6.4594 24.3866C6.3741 26.3329 6.39736 28.3334 6.4594 30.2719C6.45427 30.6589 6.52542 31.0431 6.66878 31.4025C6.81215 31.762 7.02491 32.0897 7.29493 32.3669C7.56495 32.6441 7.88693 32.8654 8.24249 33.0182C8.59805 33.171 8.98022 33.2522 9.36718 33.2573C10.2434 33.2573 11.1351 33.2573 12.0113 33.2573H18.8194C19.1279 33.2573 19.4237 33.1347 19.6419 32.9166C19.86 32.6985 19.9825 32.4026 19.9825 32.0942C19.9825 31.7857 19.86 31.4898 19.6419 31.2717C19.4237 31.0536 19.1279 30.931 18.8194 30.931V30.931Z" fill="#404852"/>
<path d="M34.4745 30.9312H29.9849C29.677 30.9332 29.3824 31.0564 29.1647 31.2741C28.947 31.4918 28.8238 31.7864 28.8218 32.0943C28.8277 32.4009 28.9522 32.6933 29.169 32.9101C29.3859 33.127 29.6783 33.2514 29.9849 33.2574H34.4745C34.783 33.2574 35.0788 33.1348 35.297 32.9167C35.5151 32.6986 35.6376 32.4027 35.6376 32.0943C35.6376 31.7858 35.5151 31.4899 35.297 31.2718C35.0788 31.0537 34.783 30.9312 34.4745 30.9312Z" fill="#404852"/>
<path d="M40.8709 44.2603H10.2733C8.98203 44.3343 7.68757 44.3343 6.39628 44.2603C5.31161 44.1173 4.31204 43.5966 3.57321 42.7897C2.83437 41.9828 2.40354 40.9413 2.3564 39.8482C2.3564 39.4838 2.3564 39.0728 2.3564 38.7472V7.30435C2.36416 4.59817 4.17861 2.37275 6.97784 2.32623C8.04015 2.32623 9.11021 2.32623 10.1725 2.32623H46.3298C50.013 2.32623 53.7039 2.32623 57.3794 2.32623C58.0259 2.31777 58.6672 2.44237 59.2635 2.6923C59.8598 2.94223 60.3983 3.31213 60.8455 3.77902C61.2928 4.24591 61.6392 4.7998 61.8633 5.40627C62.0874 6.01274 62.1844 6.65882 62.1481 7.30435V18.2841C62.1481 18.5926 62.2707 18.8885 62.4888 19.1066C62.7069 19.3247 63.0028 19.4472 63.3113 19.4472C63.6197 19.4472 63.9156 19.3247 64.1337 19.1066C64.3518 18.8885 64.4744 18.5926 64.4744 18.2841V10.6153C64.4744 7.56799 64.8155 4.41207 62.4428 2.03157C60.7989 0.372196 58.7131 0 56.5032 0H7.75324C5.20215 0 2.87593 0.775409 1.3096 2.93104C-0.000840336 4.77652 0.0379301 6.85461 0.0379301 8.98698V36.2503C-0.0370972 37.7133 -0.0111889 39.1797 0.115471 40.6392C0.619486 44.3068 3.81417 46.5865 7.37329 46.5865H40.8709C41.1794 46.5865 41.4753 46.464 41.6934 46.2459C41.9115 46.0277 42.034 45.7319 42.034 45.4234C42.034 45.115 41.9115 44.8191 41.6934 44.601C41.4753 44.3829 41.1794 44.2603 40.8709 44.2603V44.2603Z" fill="#404852"/>
</g>
<defs>
<clipPath id="clip0">
<rect width="78.8048" height="56" fill="white"/>
</clipPath>
</defs>
</svg>
