<svg width="40" height="56" viewBox="0 0 40 56" fill="none" xmlns="http://www.w3.org/2000/svg">
<g clip-path="url(#clip0)">
<path d="M28.7207 54.3415H3.5563C2.88963 54.3415 2.24074 54.3415 1.82297 53.6402C1.62522 53.2387 1.54766 52.7823 1.60074 52.3324V15.1633C1.50738 14.2182 1.50738 13.2653 1.60074 12.3202C1.92963 10.8133 3.78741 11.1545 4.86297 11.1545H36.4452C36.8284 11.1135 37.2153 11.1554 37.583 11.2777C38.4185 11.6568 38.4719 12.4908 38.4719 13.2963V33.5678C38.4923 33.77 38.5821 33.957 38.724 34.0929C38.8659 34.2288 39.05 34.304 39.2407 34.304C39.4315 34.304 39.6155 34.2288 39.7575 34.0929C39.8994 33.957 39.9892 33.77 40.0096 33.5678V13.012C40.05 12.3892 39.9256 11.7668 39.6506 11.2156C39.3756 10.6644 38.961 10.2065 38.4541 9.89405C37.8798 9.6074 37.2468 9.48025 36.6141 9.52444H7.28074C5.90297 9.52444 4.52519 9.52444 3.1563 9.52444C2.60765 9.50286 2.06359 9.63825 1.5806 9.91656C1.0976 10.1949 0.69329 10.6059 0.409633 11.1071C0.106516 11.7221 -0.0347793 12.4131 0.000744297 13.1068V50.8066C0.000744297 52.1049 -0.185922 53.6497 0.587411 54.7016C1.68963 56.2843 3.58297 55.981 5.20074 55.981H28.7207C28.9104 55.9593 29.0858 55.8635 29.2133 55.7122C29.3408 55.5609 29.4113 55.3647 29.4113 55.1613C29.4113 54.9579 29.3408 54.7617 29.2133 54.6103C29.0858 54.459 28.9104 54.3633 28.7207 54.3415V54.3415Z" fill="#404852"/>
<path d="M38.4618 52.8346C38.4533 53.1317 38.365 53.42 38.2075 53.6652C38.0499 53.9105 37.8297 54.1024 37.5729 54.2183C37.2879 54.3246 36.9852 54.3666 36.6841 54.3415H32.8263C32.6366 54.3632 32.4612 54.459 32.3337 54.6103C32.2063 54.7616 32.1357 54.9579 32.1357 55.1612C32.1357 55.3646 32.2063 55.5608 32.3337 55.7122C32.4612 55.8635 32.6366 55.9592 32.8263 55.981H35.3863C36.4193 56.118 37.4681 55.988 38.4441 55.6019C38.9116 55.3309 39.3025 54.9313 39.5761 54.4446C39.8497 53.958 39.9959 53.402 39.9996 52.8346C39.9792 52.6324 39.8894 52.4454 39.7475 52.3095C39.6055 52.1736 39.4215 52.0984 39.2307 52.0984C39.04 52.0984 38.8559 52.1736 38.714 52.3095C38.5721 52.4454 38.4823 52.6324 38.4618 52.8346V52.8346Z" fill="#404852"/>
<path d="M38.4619 37.9081V47.1956C38.4823 47.3979 38.5721 47.5849 38.7141 47.7208C38.856 47.8567 39.04 47.9319 39.2308 47.9319C39.4216 47.9319 39.6056 47.8567 39.7475 47.7208C39.8895 47.5849 39.9793 47.3979 39.9997 47.1956V37.9081C39.9793 37.7059 39.8895 37.5189 39.7475 37.383C39.6056 37.2471 39.4216 37.1719 39.2308 37.1719C39.04 37.1719 38.856 37.2471 38.7141 37.383C38.5721 37.5189 38.4823 37.7059 38.4619 37.9081V37.9081Z" fill="#404852"/>
<path d="M20.0087 27.5876C26.9454 27.5876 32.5687 21.5922 32.5687 14.1965C32.5687 6.80082 26.9454 0.80542 20.0087 0.80542C13.072 0.80542 7.44873 6.80082 7.44873 14.1965C7.44873 21.5922 13.072 27.5876 20.0087 27.5876Z" fill="white"/>
<path d="M31.7953 14.2146C31.7952 16.8001 31.0471 19.3226 29.6531 21.4381C28.259 23.5536 26.2869 25.1592 24.0056 26.036C21.7243 26.9127 19.2448 27.0179 16.9054 26.3372C14.566 25.6565 12.4804 24.223 10.9331 22.2322C9.39148 20.234 8.46545 17.7774 8.28131 15.1975C8.09716 12.6175 8.66387 10.0398 9.90415 7.81589C11.1444 5.59194 12.9979 3.82998 15.2118 2.77028C17.4258 1.71059 19.8924 1.40474 22.2753 1.89444C24.9445 2.47745 27.3455 4.01845 29.0779 6.26045C30.8103 8.50245 31.7695 11.3099 31.7953 14.2146C31.8158 14.4169 31.9056 14.6039 32.0475 14.7398C32.1894 14.8757 32.3735 14.9509 32.5642 14.9509C32.755 14.9509 32.939 14.8757 33.081 14.7398C33.2229 14.6039 33.3127 14.4169 33.3331 14.2146C33.3221 11.301 32.4716 8.46142 30.8968 6.08021C29.3221 3.69899 27.099 1.89119 24.5287 0.90155C21.9584 -0.0880948 19.1649 -0.211785 16.5265 0.547224C13.8881 1.30623 11.5321 2.91128 9.77757 5.14508C8.02759 7.42112 6.9764 10.2159 6.76651 13.1504C6.55662 16.0849 7.19819 19.0173 8.60424 21.5499C10.0436 24.0441 12.1636 26.0097 14.68 27.1835C17.1964 28.3573 19.9892 28.6832 22.6842 28.1175C25.6775 27.4365 28.3636 25.6881 30.2996 23.1607C32.2355 20.6332 33.3055 17.4777 33.3331 14.2146C33.3127 14.0124 33.2229 13.8254 33.081 13.6895C32.939 13.5536 32.755 13.4784 32.5642 13.4784C32.3735 13.4784 32.1894 13.5536 32.0475 13.6895C31.9056 13.8254 31.8158 14.0124 31.7953 14.2146V14.2146Z" fill="#404852"/>
<path d="M19.9823 25.1237C25.6426 25.1237 30.2312 20.2314 30.2312 14.1966C30.2312 8.16174 25.6426 3.26953 19.9823 3.26953C14.322 3.26953 9.7334 8.16174 9.7334 14.1966C9.7334 20.2314 14.322 25.1237 19.9823 25.1237Z" fill="#F7B519"/>
<path d="M23.5021 11.9411C23.5053 12.546 23.377 13.1436 23.1272 13.6868C22.8774 14.23 22.5129 14.704 22.0623 15.0717C21.6117 15.4394 21.0873 15.6907 20.5302 15.8059C19.9732 15.9212 19.3987 15.8971 18.8518 15.7358C18.3049 15.5744 17.8006 15.2801 17.3784 14.8759C16.9562 14.4717 16.6276 13.9687 16.4184 13.4063C16.2093 12.844 16.1252 12.2376 16.1729 11.6347C16.2206 11.0319 16.3987 10.449 16.6932 9.93194C17.1039 9.19642 17.73 8.6252 18.4751 8.30619C19.2202 7.98718 20.0429 7.93806 20.8167 8.1664C21.5905 8.39473 22.2725 8.88786 22.7577 9.56989C23.2429 10.2519 23.5045 11.0851 23.5021 11.9411C23.5225 12.1433 23.6123 12.3303 23.7542 12.4662C23.8962 12.6021 24.0802 12.6773 24.271 12.6773C24.4617 12.6773 24.6458 12.6021 24.7877 12.4662C24.9296 12.3303 25.0194 12.1433 25.0399 11.9411C25.0207 10.8103 24.6858 9.71118 24.0777 8.78438C23.4697 7.85758 22.6163 7.14515 21.6265 6.73817C20.6206 6.35713 19.5292 6.31537 18.5002 6.61857C17.4713 6.92177 16.5549 7.55523 15.8753 8.43294C15.1958 9.31065 14.786 10.3901 14.7018 11.5246C14.6175 12.6592 14.8628 13.7939 15.4043 14.7747C15.9889 15.8175 16.878 16.6271 17.9355 17.0795C18.9929 17.532 20.1603 17.6023 21.2588 17.2796C22.3573 16.957 23.3263 16.2592 24.0173 15.2933C24.7082 14.3273 25.083 13.1464 25.0843 11.9316C25.0831 11.7079 24.9986 11.4939 24.8494 11.3366C24.7002 11.1793 24.4986 11.0916 24.2887 11.0929C24.0789 11.0941 23.8782 11.1842 23.7306 11.3433C23.5831 11.5023 23.5009 11.7174 23.5021 11.9411V11.9411Z" fill="#404852"/>
<path d="M17.7241 16.2152V16.3005V16.3953C17.6619 16.5943 17.7863 16.2531 17.7241 16.3953C17.6042 16.6687 17.4646 16.9317 17.3063 17.1819L17.2263 17.2956C17.1374 17.4378 17.2263 17.2956 17.2263 17.2956L17.0219 17.5515C16.8702 17.7369 16.7069 17.911 16.533 18.0727L16.3908 18.1959L16.3285 18.2528C16.2485 18.3191 16.4441 18.1675 16.3285 18.2528C16.213 18.3381 16.1063 18.4328 15.9819 18.5087C15.7419 18.6791 15.4892 18.828 15.2263 18.9541H15.1108L14.8174 19.0678C14.6308 19.1436 14.4441 19.2005 14.2485 19.2573C14.053 19.3142 13.8396 19.3711 13.6263 19.4185L13.013 19.5227C12.8124 19.5298 12.6218 19.618 12.4798 19.7693C12.3379 19.9206 12.2552 20.1238 12.2485 20.3377C12.2508 20.554 12.3318 20.7609 12.4744 20.9148C12.617 21.0686 12.8101 21.1573 13.013 21.1622C15.3952 20.8685 17.9196 19.7217 18.9952 17.2861C19.0896 17.0843 19.1699 16.8752 19.2352 16.6606C19.2685 16.4586 19.23 16.2505 19.1271 16.0771C19.0242 15.9037 18.8644 15.7774 18.6789 15.723C18.4934 15.6685 18.2955 15.6897 18.1238 15.7825C17.9522 15.8753 17.8192 16.0329 17.7508 16.2247L17.7241 16.2152Z" fill="#404852"/>
<path d="M20.8178 16.4995C20.9609 17.0005 21.1834 17.4717 21.4756 17.8926C22.1518 18.9066 23.0734 19.7059 24.1423 20.205C25.0586 20.6255 26.0298 20.8939 27.0223 21.0011C27.225 21.0011 27.4195 20.9152 27.5628 20.7624C27.7062 20.6095 27.7867 20.4022 27.7867 20.1861C27.7802 19.9712 27.6978 19.7669 27.5561 19.6141C27.4144 19.4612 27.2237 19.371 27.0223 19.3616C26.6567 19.3142 26.2945 19.2414 25.9378 19.1436C25.5931 19.0511 25.2545 18.9339 24.9245 18.793H24.8267L24.6223 18.6887C24.489 18.6224 24.3645 18.5465 24.2401 18.4707L23.8934 18.2338L23.7334 18.1106C23.5823 17.9969 23.8134 18.1864 23.6712 18.1106C23.486 17.9524 23.3109 17.7815 23.1467 17.5988L22.9334 17.3524L22.8445 17.2292C22.7378 17.0966 22.9334 17.3619 22.8445 17.2292C22.6685 16.9658 22.5138 16.6868 22.3823 16.3953L22.3378 16.31C22.2756 16.1678 22.409 16.509 22.3378 16.3953C22.327 16.3527 22.3121 16.3114 22.2934 16.2721C22.2972 16.2343 22.2972 16.1961 22.2934 16.1583C22.2392 15.9497 22.1094 15.7726 21.9327 15.666C21.756 15.5593 21.5468 15.5319 21.3512 15.5897C21.1555 15.6475 20.9894 15.7858 20.8894 15.9742C20.7894 16.1626 20.7636 16.3857 20.8178 16.5943V16.4995Z" fill="#404852"/>
<path d="M9.77746 41.3009H30.2219C30.4116 41.2791 30.587 41.1834 30.7145 41.0321C30.8419 40.8807 30.9124 40.6845 30.9124 40.4811C30.9124 40.2778 30.8419 40.0815 30.7145 39.9302C30.587 39.7789 30.4116 39.6832 30.2219 39.6614H9.77746C9.58779 39.6832 9.41236 39.7789 9.28489 39.9302C9.15742 40.0815 9.08691 40.2778 9.08691 40.4811C9.08691 40.6845 9.15742 40.8807 9.28489 41.0321C9.41236 41.1834 9.58779 41.2791 9.77746 41.3009V41.3009Z" fill="#404852"/>
<path d="M9.77746 47.9445H30.2219C30.4116 47.9227 30.587 47.8269 30.7145 47.6756C30.8419 47.5243 30.9124 47.3281 30.9124 47.1247C30.9124 46.9213 30.8419 46.7251 30.7145 46.5738C30.587 46.4225 30.4116 46.3267 30.2219 46.3049H9.77746C9.58779 46.3267 9.41236 46.4225 9.28489 46.5738C9.15742 46.7251 9.08691 46.9213 9.08691 47.1247C9.08691 47.3281 9.15742 47.5243 9.28489 47.6756C9.41236 47.8269 9.58779 47.9227 9.77746 47.9445Z" fill="#404852"/>
<path d="M9.77746 34.6671H30.2219C30.4116 34.6453 30.587 34.5496 30.7145 34.3983C30.8419 34.247 30.9124 34.0507 30.9124 33.8474C30.9124 33.644 30.8419 33.4478 30.7145 33.2964C30.587 33.1451 30.4116 33.0494 30.2219 33.0276H9.77746C9.58779 33.0494 9.41236 33.1451 9.28489 33.2964C9.15742 33.4478 9.08691 33.644 9.08691 33.8474C9.08691 34.0507 9.15742 34.247 9.28489 34.3983C9.41236 34.5496 9.58779 34.6453 9.77746 34.6671V34.6671Z" fill="#404852"/>
</g>
<defs>
<clipPath id="clip0">
<rect width="40" height="56" fill="white"/>
</clipPath>
</defs>
</svg>
