<svg width="56" height="56" viewBox="0 0 56 56" fill="none" xmlns="http://www.w3.org/2000/svg">
<path d="M29.4118 45.8267C39.051 45.8267 46.8652 38.1011 46.8652 28.571C46.8652 19.041 39.051 11.3154 29.4118 11.3154C19.7726 11.3154 11.9585 19.041 11.9585 28.571C11.9585 38.1011 19.7726 45.8267 29.4118 45.8267Z" fill="#F7B519"/>
<path d="M39.1185 45.469C38.6137 45.7714 38.0917 46.0449 37.5551 46.288C37.368 46.4045 37.2309 46.5852 37.1701 46.7955C37.1382 46.903 37.1284 47.0158 37.1412 47.1271C37.1539 47.2385 37.189 47.3462 37.2445 47.4439C37.2999 47.5417 37.3745 47.6275 37.4639 47.6964C37.5533 47.7653 37.6557 47.8159 37.7651 47.8451H37.9868C38.1425 47.8481 38.296 47.8081 38.4301 47.7298C38.9617 47.4842 39.4796 47.2109 39.9818 46.9108C40.1749 46.7981 40.3169 46.6165 40.3785 46.4033C40.4089 46.2957 40.4173 46.1831 40.4033 46.0722C40.3893 45.9613 40.3531 45.8543 40.2968 45.7574C40.2418 45.6616 40.1681 45.5776 40.08 45.5103C39.9918 45.443 39.891 45.3937 39.7835 45.3652C39.5593 45.3109 39.3227 45.3396 39.1185 45.4459V45.469Z" fill="#404852"/>
<path d="M47.4248 36.0685C47.3543 36.2576 47.2724 36.4425 47.1798 36.6221L46.8648 37.2911C46.6314 37.741 46.3981 38.1677 46.1414 38.5945C45.8848 39.0213 45.6164 39.4481 45.3248 39.8518C45.0331 40.2555 44.7998 40.5669 44.4848 41.0052C44.3986 41.1665 44.3669 41.3509 44.3944 41.5312C44.4219 41.7116 44.5072 41.8786 44.6376 42.0076C44.7681 42.1365 44.9369 42.2208 45.1194 42.248C45.3018 42.2752 45.4883 42.2439 45.6514 42.1587C47.058 40.4605 48.1985 38.563 49.0348 36.5298C49.0959 36.3127 49.0676 36.0804 48.9562 35.8837C48.8447 35.6871 48.6591 35.542 48.4398 35.4802C48.2191 35.432 47.9881 35.4667 47.7919 35.5775C47.5956 35.6884 47.4481 35.8675 47.3781 36.08L47.4248 36.0685Z" fill="#404852"/>
<path d="M9.53164 19.7356C8.22438 22.5781 7.5651 25.6699 7.60047 28.7923C7.63584 31.9146 8.365 34.9911 9.73633 37.8039C11.1077 40.6167 13.0876 43.0971 15.5361 45.0695C17.9845 47.0419 20.8416 48.4581 23.905 49.2178C27.111 49.9936 30.4528 50.0449 33.6816 49.3677C34.7666 49.1486 34.3116 47.5107 33.2266 47.7298C30.4913 48.2995 27.6651 48.291 24.9333 47.705C22.2016 47.1191 19.6259 45.9688 17.3753 44.3296C15.1247 42.6905 13.25 40.5995 11.8741 38.1938C10.4983 35.7881 9.65226 33.122 9.39164 30.3704C9.09453 27.0309 9.65221 23.6711 11.0133 20.6007C11.4566 19.6087 9.98664 18.7436 9.53164 19.7356Z" fill="#404852"/>
<path d="M15.6685 11.9497C13.9453 13.3163 12.4425 14.9343 11.2118 16.748C11.0973 16.9423 11.0656 17.1735 11.1236 17.3909C11.1815 17.6083 11.3245 17.7941 11.521 17.9072C11.7175 18.0204 11.9514 18.0518 12.1713 17.9945C12.3911 17.9372 12.579 17.7958 12.6935 17.6016L13.1485 16.9556L13.3701 16.6788C13.3701 16.6788 13.4751 16.5289 13.3701 16.6788L13.4868 16.5173C13.8135 16.1136 14.1518 15.7215 14.5135 15.3639C15.2367 14.5929 16.0166 13.8758 16.8468 13.2185C16.9953 13.0623 17.0779 12.8561 17.0779 12.6417C17.0779 12.4274 16.9953 12.2212 16.8468 12.065C16.6842 11.9277 16.4773 11.8523 16.2635 11.8523C16.0496 11.8523 15.8428 11.9277 15.6801 12.065L15.6685 11.9497Z" fill="#404852"/>
<path d="M50.5865 30.1512C50.8773 26.4144 50.1648 22.6679 48.5211 19.2908C46.8774 15.9136 44.3607 13.0255 41.2257 10.9185C38.0906 8.8116 34.4484 7.56059 30.6674 7.29202C26.8863 7.02345 23.1006 7.74687 19.6931 9.38908C18.6898 9.862 19.5648 11.3269 20.5565 10.854C23.7038 9.3677 27.192 8.72834 30.6691 9.00037C34.1461 9.2724 37.4892 10.4462 40.3609 12.4034C43.2327 14.3605 45.5316 17.0318 47.0258 20.1478C48.52 23.2638 49.1566 26.7143 48.8715 30.1512C48.7898 31.247 50.5048 31.2354 50.5865 30.1512Z" fill="#404852"/>
<path d="M8.505 4.72915C7.16333 3.46035 7.7 0 6.265 0C4.83 0 5.37833 3.46035 4.03667 4.72915C2.01833 6.72461 0 6.9207 0 7.68198C0 8.44325 1.72667 8.36251 3.68667 10.3003C4.71333 11.3153 5.27333 15.4793 6.265 15.4793C7.25667 15.4793 7.82833 11.3153 8.855 10.3003C10.815 8.36251 12.5417 8.48939 12.5417 7.68198C12.5417 6.87456 10.5 6.72461 8.505 4.72915Z" fill="#F7B519"/>
<path d="M52.9434 47.8567C51.9284 46.8532 52.3368 44.281 51.2518 44.281C50.1668 44.281 50.5751 46.8532 49.5601 47.8567C48.0318 49.3677 46.5034 49.4946 46.5034 50.0944C46.5034 50.6942 47.8101 50.6019 49.3034 52.0783C50.0734 52.8511 50.4701 56.0001 51.2518 56.0001C52.0334 56.0001 52.4184 52.8511 53.2118 52.0783C54.6934 50.6019 56.0001 50.7519 56.0001 50.0944C56.0001 49.4369 54.4718 49.3677 52.9434 47.8567Z" fill="#F7B519"/>
<path d="M28.5483 18.6629V38.4677C28.5729 38.6755 28.6738 38.8671 28.8319 39.0062C28.99 39.1453 29.1942 39.2222 29.4058 39.2222C29.6175 39.2222 29.8217 39.1453 29.9798 39.0062C30.1379 38.8671 30.2388 38.6755 30.2633 38.4677V18.6629C30.2388 18.4551 30.1379 18.2635 29.9798 18.1244C29.8217 17.9853 29.6175 17.9084 29.4058 17.9084C29.1942 17.9084 28.99 17.9853 28.8319 18.1244C28.6738 18.2635 28.5729 18.4551 28.5483 18.6629Z" fill="#404852"/>
<path d="M39.4218 27.6829H19.3901C19.1799 27.7071 18.9861 27.8069 18.8454 27.9632C18.7047 28.1195 18.627 28.3214 18.627 28.5306C18.627 28.7399 18.7047 28.9418 18.8454 29.0981C18.9861 29.2544 19.1799 29.3542 19.3901 29.3784H39.4218C39.632 29.3542 39.8258 29.2544 39.9665 29.0981C40.1072 28.9418 40.1849 28.7399 40.1849 28.5306C40.1849 28.3214 40.1072 28.1195 39.9665 27.9632C39.8258 27.8069 39.632 27.7071 39.4218 27.6829Z" fill="#404852"/>
</svg>
